HIERARCHY
ROOT joint_Root
{
	OFFSET 0.0 0.0 0.0
	CHANNELS 6 Xposition Yposition Zposition Zrotation Xrotation Yrotation 
	JOINT Hips
	{
		OFFSET -0.726466 93.3139 -2.00062
		CHANNELS 6 Xposition Yposition Zposition Zrotation Xrotation Yrotation 
		JOINT Spine
		{
			OFFSET 15.7357 0.0 0.0
			CHANNELS 6 Xposition Yposition Zposition Zrotation Xrotation Yrotation 
			JOINT Chest
			{
				OFFSET 8.98455 -0.406207 0.0
				CHANNELS 6 Xposition Yposition Zposition Zrotation Xrotation Yrotation 
				JOINT Neck
				{
					OFFSET 16.3773 0.0 0.0
					CHANNELS 6 Xposition Yposition Zposition Zrotation Xrotation Yrotation 
					JOINT Head
					{
						OFFSET 6.45672 0.0 0.0
						CHANNELS 6 Xposition Yposition Zposition Zrotation Xrotation Yrotation 
						End Site
						{
							OFFSET 0.0 0.0 0.0
						}
					}
				}
				JOINT Shoulder_L
				{
					OFFSET 12.9942 -0.242716 4.98039
					CHANNELS 6 Xposition Yposition Zposition Zrotation Xrotation Yrotation 
					JOINT UpperArm_L
					{
						OFFSET 5.34809 0.0 0.0
						CHANNELS 6 Xposition Yposition Zposition Zrotation Xrotation Yrotation 
						JOINT LowerArm_L
						{
							OFFSET 24.3286 1.87007e-05 0.0
							CHANNELS 6 Xposition Yposition Zposition Zrotation Xrotation Yrotation 
							JOINT Hand_L
							{
								OFFSET 22.2916 0.0 0.0
								CHANNELS 6 Xposition Yposition Zposition Zrotation Xrotation Yrotation 
								End Site
								{
									OFFSET 0.0 0.0 0.0
								}
							}
						}
					}
				}
				JOINT Shoulder_R
				{
					OFFSET 12.9945 -0.242716 -4.98039
					CHANNELS 6 Xposition Yposition Zposition Zrotation Xrotation Yrotation 
					JOINT UpperArm_R
					{
						OFFSET -5.34813 0.0 0.0
						CHANNELS 6 Xposition Yposition Zposition Zrotation Xrotation Yrotation 
						JOINT LowerArm_R
						{
							OFFSET -24.3289 0.000322201 0.0
							CHANNELS 6 Xposition Yposition Zposition Zrotation Xrotation Yrotation 
							JOINT Hand_R
							{
								OFFSET -22.2915 -0.000108084 0.0
								CHANNELS 6 Xposition Yposition Zposition Zrotation Xrotation Yrotation 
								End Site
								{
									OFFSET 0.0 0.0 0.0
								}
							}
						}
					}
				}
			}
		}
		JOINT UpperLeg_L
		{
			OFFSET -2.19248 -6.46944 0.0
			CHANNELS 6 Xposition Yposition Zposition Zrotation Xrotation Yrotation 
			JOINT LowerLeg_L
			{
				OFFSET 39.0811 0.0 -1.23785e-05
				CHANNELS 6 Xposition Yposition Zposition Zrotation Xrotation Yrotation 
				JOINT Foot_L
				{
					OFFSET 40.9854 0.0 -1.26872e-05
					CHANNELS 6 Xposition Yposition Zposition Zrotation Xrotation Yrotation 
					JOINT Toes_L
					{
						OFFSET 11.7543 0.0 0.0
						CHANNELS 6 Xposition Yposition Zposition Zrotation Xrotation Yrotation 
						End Site
						{
							OFFSET 0.0 0.0 0.0
						}
					}
				}
			}
		}
		JOINT UpperLeg_R
		{
			OFFSET -2.19251 6.46944 0.0
			CHANNELS 6 Xposition Yposition Zposition Zrotation Xrotation Yrotation 
			JOINT LowerLeg_R
			{
				OFFSET -39.0811 -0.00228153 -0.0401928
				CHANNELS 6 Xposition Yposition Zposition Zrotation Xrotation Yrotation 
				JOINT Foot_R
				{
					OFFSET -40.9854 0.0 0.0
					CHANNELS 6 Xposition Yposition Zposition Zrotation Xrotation Yrotation 
					JOINT Toes_R
					{
						OFFSET -11.7543 0.0 0.0
						CHANNELS 6 Xposition Yposition Zposition Zrotation Xrotation Yrotation 
						End Site
						{
							OFFSET 0.0 0.0 0.0
						}
					}
				}
			}
		}
	}
}
MOTION
Frames:	8
Frame Time:	0.0333333
0.000000 0.000000 0.000000 0.000000 0.000000 -0.000000 -0.999097 92.415600 -0.982631 88.092700 -0.156286 2.199090 15.735700 0.000005 -0.000001 81.914300 85.588500 -81.428600 8.984550 -0.406207 -0.000000 0.975081 -1.269270 0.981404 16.377300 -0.000001 -0.000001 1.944730 -2.438270 0.692356 6.456720 -0.000001 -0.000000 5.371080 -1.925820 -0.856641 12.994200 -0.242716 4.980390 -90.287000 0.926355 -72.788000 5.348090 -0.000007 -0.000001 -67.659700 38.571100 -13.705300 24.328600 0.000019 0.000005 2.032500 4.727110 -23.296100 22.291600 -0.000001 0.000005 2.502990 5.471380 -5.422360 12.994500 -0.242716 -4.980390 88.236800 5.802910 -73.066800 -5.348130 -0.000001 -0.000004 -64.674100 39.407500 -16.738600 -24.328900 0.000322 -0.000009 1.866940 6.408440 -16.288400 -22.291500 -0.000108 -0.000004 6.485270 5.377770 -2.228320 -2.192480 -6.469440 -0.000000 -175.586000 -6.878340 -4.247840 39.081100 -0.000007 -0.000012 -0.098303 0.241969 22.110200 40.985400 -0.000006 -0.000013 -0.421536 3.426490 -65.858500 11.754300 -0.000000 0.000003 -0.000036 -0.000421 -16.594000 -2.192510 6.469440 -0.000001 -179.815000 16.248300 179.330000 -39.081100 -0.002282 -0.040193 -0.016338 0.060176 18.095400 -40.985400 0.000008 0.000006 4.108050 6.715640 -65.803800 -11.754300 -0.000006 -0.000006 -0.005401 -0.065294 -19.230000
0.000000 0.000000 0.000000 0.000000 0.000000 -0.000000 -0.994034 92.418200 -0.989797 88.082300 -0.239458 2.211020 15.735700 0.000005 -0.000001 81.997600 85.574500 -81.498900 8.984550 -0.406207 -0.000000 1.004750 -1.261110 1.007570 16.377300 -0.000001 -0.000001 1.962550 -2.460610 0.730460 6.456720 -0.000001 -0.000000 5.322910 -1.916610 -0.996750 12.994200 -0.242716 4.980390 -90.403400 1.289970 -72.635400 5.348090 -0.000007 -0.000001 -66.823200 37.259300 -13.475500 24.328600 0.000019 0.000005 2.816700 5.844610 -25.784800 22.291600 -0.000001 0.000005 1.753330 5.470550 -5.390790 12.994500 -0.242716 -4.980390 88.261100 5.688230 -72.970200 -5.348130 -0.000001 -0.000004 -64.924800 39.352100 -16.719300 -24.328900 0.000322 -0.000009 1.861330 6.394310 -16.275900 -22.291500 -0.000108 -0.000004 6.472220 5.377600 -2.223200 -2.192480 -6.469440 -0.000000 -175.583000 -6.959680 -4.230190 39.081100 -0.000007 -0.000012 -0.096886 0.238537 22.105500 40.985400 -0.000006 -0.000013 -0.421667 3.381920 -65.853100 11.754300 -0.000000 0.000003 -0.000037 -0.000432 -16.594400 -2.192510 6.469440 -0.000001 -179.806000 16.208700 179.337000 -39.081100 -0.002282 -0.040193 -0.015822 0.058628 18.086200 -40.985400 0.000008 0.000006 4.152440 6.739880 -65.795300 -11.754300 -0.000006 -0.000006 -0.005410 -0.065382 -19.233600
0.000000 0.000000 0.000000 0.000000 0.000000 -0.000000 -1.019390 92.424500 -1.026390 88.056900 -0.291158 2.181780 15.735700 0.000005 -0.000001 82.185700 85.566600 -81.676300 8.984550 -0.406207 -0.000000 1.024510 -1.235040 1.029020 16.377300 -0.000001 -0.000001 1.959920 -2.480590 0.787088 6.456720 -0.000001 -0.000000 5.285600 -1.956010 -1.128010 12.994200 -0.242716 4.980390 -90.530400 1.668940 -72.366700 5.348090 -0.000007 -0.000001 -65.225700 34.912300 -13.459800 24.328600 0.000019 0.000005 3.464500 6.055830 -29.855500 22.291600 -0.000001 0.000005 1.915460 5.477330 -5.643580 12.994500 -0.242716 -4.980390 88.276800 5.605500 -72.881300 -5.348130 -0.000001 -0.000004 -65.266100 39.155100 -16.575300 -24.328900 0.000322 -0.000009 1.846370 6.277640 -16.434900 -22.291500 -0.000108 -0.000004 6.494320 5.377720 -2.226650 -2.192480 -6.469440 -0.000000 -175.544000 -6.932420 -4.275470 39.081100 -0.000007 -0.000012 -0.097786 0.240902 22.093100 40.985400 -0.000006 -0.000013 -0.454612 3.334430 -65.820500 11.754300 -0.000000 0.000003 -0.000033 -0.000390 -16.592800 -2.192510 6.469440 -0.000001 -179.740000 16.221400 179.283000 -39.081100 -0.002282 -0.040193 -0.013897 0.052796 18.065900 -40.985400 0.000008 0.000006 4.272250 6.773170 -65.773600 -11.754300 -0.000006 -0.000006 -0.005690 -0.067991 -19.340000
0.000000 0.000000 0.000000 0.000000 0.000000 -0.000000 -1.058700 92.421500 -1.050400 88.057900 -0.330392 2.218900 15.735700 0.000005 -0.000001 82.856200 85.551500 -82.347800 8.984550 -0.406207 -0.000000 1.067350 -1.135670 1.026550 16.377300 -0.000001 -0.000001 2.006770 -2.432490 0.826835 6.456720 -0.000001 -0.000000 5.196660 -2.083600 -1.131280 12.994200 -0.242716 4.980390 -90.596300 1.831780 -71.966100 5.348090 -0.000007 -0.000001 -63.135900 31.297900 -14.003300 24.328600 0.000019 0.000005 3.745670 5.380180 -34.923400 22.291600 -0.000001 0.000005 2.659040 5.492060 -6.214480 12.994500 -0.242716 -4.980390 88.278600 5.566050 -72.784800 -5.348130 -0.000001 -0.000004 -65.540800 39.025100 -16.356800 -24.328900 0.000322 -0.000009 1.796290 5.995190 -16.722600 -22.291500 -0.000108 -0.000004 6.507100 5.378180 -2.241010 -2.192480 -6.469440 -0.000000 -175.517000 -6.889490 -4.246440 39.081100 -0.000007 -0.000012 -0.098609 0.242758 22.107200 40.985400 -0.000006 -0.000013 -0.497312 3.273440 -65.821800 11.754300 -0.000000 0.000003 -0.000040 -0.000465 -16.595700 -2.192510 6.469440 -0.000001 -179.748000 16.259100 179.312000 -39.081100 -0.002282 -0.040193 -0.016626 0.061182 18.060800 -40.985400 0.000008 0.000006 4.103240 6.895330 -65.737200 -11.754300 -0.000006 -0.000006 -0.005442 -0.065683 -19.245900
0.000000 0.000000 0.000000 0.000000 0.000000 -0.000000 -1.123280 92.427900 -1.096740 88.047400 -0.276409 2.199820 15.735700 0.000005 -0.000001 83.593500 85.564400 -83.075100 8.984550 -0.406207 -0.000000 1.054710 -1.019790 1.045370 16.377300 -0.000001 -0.000001 2.108210 -2.387250 0.829328 6.456720 -0.000001 -0.000000 5.142900 -2.257010 -1.132770 12.994200 -0.242716 4.980390 -90.618300 1.855900 -71.570500 5.348090 -0.000007 -0.000001 -60.649600 26.519300 -15.280000 24.328600 0.000019 0.000005 4.093860 4.778780 -40.665700 22.291600 -0.000001 0.000005 3.883100 5.496530 -6.394820 12.994500 -0.242716 -4.980390 88.289900 5.515480 -72.743900 -5.348130 -0.000001 -0.000004 -65.735700 39.020300 -16.151200 -24.328900 0.000322 -0.000009 1.828950 6.017430 -16.950100 -22.291500 -0.000108 -0.000004 6.321490 5.379480 -2.281840 -2.192480 -6.469440 -0.000000 -175.469000 -6.842990 -4.310860 39.081100 -0.000007 -0.000012 -0.099018 0.243920 22.094400 40.985400 -0.000006 -0.000013 -0.542941 3.274470 -65.762400 11.754300 -0.000000 0.000003 -0.000035 -0.000419 -16.593900 -2.192510 6.469440 -0.000001 -179.675000 16.343800 179.259000 -39.081100 -0.002282 -0.040193 -0.014930 0.055977 18.061400 -40.985400 0.000008 0.000006 4.305350 6.887380 -65.743700 -11.754300 -0.000006 -0.000006 -0.005712 -0.068200 -19.348500
0.000000 0.000000 0.000000 0.000000 0.000000 -0.000000 -1.204150 92.433200 -1.145180 88.033600 -0.160234 2.237560 15.735700 0.000005 -0.000001 84.371400 85.566800 -83.824900 8.984550 -0.406207 -0.000000 1.062360 -0.901223 1.100400 16.377300 -0.000001 -0.000001 2.253450 -2.337520 0.798670 6.456720 -0.000001 -0.000000 5.052740 -2.375980 -1.150260 12.994200 -0.242716 4.980390 -90.592900 1.755420 -71.335600 5.348090 -0.000007 -0.000001 -57.991900 20.813000 -17.102300 24.328600 0.000019 0.000005 4.792150 4.479930 -47.019500 22.291600 -0.000001 0.000005 5.468920 5.507970 -6.856860 12.994500 -0.242716 -4.980390 88.282500 5.519870 -72.686100 -5.348130 -0.000001 -0.000004 -65.780500 39.072400 -16.069900 -24.328900 0.000322 -0.000009 1.854670 6.102160 -16.950700 -22.291500 -0.000108 -0.000004 6.459800 5.381010 -2.330430 -2.192480 -6.469440 -0.000000 -175.402000 -6.784500 -4.315390 39.081100 -0.000007 -0.000012 -0.098645 0.243140 22.083100 40.985400 -0.000006 -0.000013 -0.581938 3.340170 -65.710400 11.754300 -0.000000 0.000003 -0.000034 -0.000405 -16.593300 -2.192510 6.469440 -0.000001 -179.598000 16.469500 179.287000 -39.081100 -0.002282 -0.040193 -0.012736 0.049329 18.034100 -40.985400 0.000008 0.000006 4.439310 6.844450 -65.734700 -11.754300 -0.000006 -0.000006 -0.005537 -0.066568 -19.282000
0.000000 0.000000 0.000000 0.000000 0.000000 -0.000000 -1.278900 92.429700 -1.182840 88.045000 0.004509 2.278580 15.735700 0.000005 -0.000001 84.865400 85.570800 -84.297700 8.984550 -0.406207 -0.000000 1.061300 -0.825671 1.142190 16.377300 -0.000001 -0.000001 2.362520 -2.257570 0.737770 6.456720 -0.000001 -0.000000 4.953160 -2.352210 -1.075090 12.994200 -0.242716 4.980390 -90.475900 1.394210 -71.152500 5.348090 -0.000007 -0.000001 -55.567500 14.359100 -19.461100 24.328600 0.000019 0.000005 6.245330 4.610200 -53.696900 22.291600 -0.000001 0.000005 7.364540 5.521780 -7.432980 12.994500 -0.242716 -4.980390 88.271600 5.535550 -72.629700 -5.348130 -0.000001 -0.000004 -65.776900 39.110200 -16.088300 -24.328900 0.000322 -0.000009 1.871490 6.219460 -16.792600 -22.291500 -0.000108 -0.000004 6.478700 5.381580 -2.348050 -2.192480 -6.469440 -0.000000 -175.353000 -6.680700 -4.351740 39.081100 -0.000007 -0.000012 -0.101114 0.248789 22.118200 40.985400 -0.000006 -0.000013 -0.624193 3.416030 -65.673300 11.754300 -0.000000 0.000003 -0.000032 -0.000387 -16.592700 -2.192510 6.469440 -0.000001 -179.562000 16.580500 179.294000 -39.081100 -0.002282 -0.040193 -0.012754 0.049287 18.068100 -40.985400 0.000008 0.000006 4.421240 6.794620 -65.738700 -11.754300 -0.000006 -0.000006 -0.005457 -0.065824 -19.251600
0.000000 0.000000 0.000000 0.000000 0.000000 -0.000000 -1.341830 92.430000 -1.213640 88.055100 0.141057 2.362050 15.735700 0.000005 -0.000001 85.289800 85.554900 -84.685700 8.984550 -0.406207 -0.000000 1.098590 -0.764862 1.214480 16.377300 -0.000001 -0.000001 2.431680 -2.162230 0.660178 6.456720 -0.000001 -0.000000 4.735310 -2.267120 -0.900701 12.994200 -0.242716 4.980390 -90.331600 0.965717 -71.050100 5.348090 -0.000007 -0.000001 -53.769200 6.984910 -22.143800 24.328600 0.000019 0.000005 7.626050 4.326970 -60.592000 22.291600 -0.000001 0.000005 9.558470 5.532140 -7.886080 12.994500 -0.242716 -4.980390 88.251400 5.576550 -72.560000 -5.348130 -0.000001 -0.000004 -65.703400 39.020200 -16.177200 -24.328900 0.000322 -0.000009 1.884070 6.330850 -16.619400 -22.291500 -0.000108 -0.000004 6.619580 5.380190 -2.304410 -2.192480 -6.469440 -0.000000 -175.319000 -6.524280 -4.297920 39.081100 -0.000007 -0.000012 -0.101092 0.248832 22.110300 40.985400 -0.000006 -0.000013 -0.663261 3.439070 -65.642800 11.754300 -0.000000 0.000003 -0.000043 -0.000493 -16.596800 -2.192510 6.469440 -0.000001 -179.552000 16.718100 179.362000 -39.081100 -0.002282 -0.040193 -0.012355 0.048021 18.082800 -40.985400 0.000008 0.000006 4.484540 6.785350 -65.751200 -11.754300 -0.000006 -0.000006 -0.005262 -0.063977 -19.176300
